<svg xmlns="http://www.w3.org/2000/svg" width="264" height="100" viewBox="29.5 30.5 1341 508"><title>Alto Studio</title><desc>Header version derived from the supplied dark-background vector. Lettering and corner positions preserved; tagline omitted and outer whitespace trimmed.</desc><path fill="#FFFFFF" fill-rule="evenodd" d="M473.000 458.000 L473.000 458.000 L486.000 458.000 L486.000 459.000 L491.000 460.000 L491.000 461.000 L493.000 462.000 L493.000 464.000 L494.000 464.000 L494.000 466.000 L491.000 467.000 L491.000 465.000 L490.450 465.000 C490.150 465.000 489.917 464.875 489.750 464.626 L488.749 463.123 C488.250 462.374 487.550 462.000 486.650 462.000 L485.000 462.000 L485.000 461.000 L474.000 461.000 L474.000 462.000 L470.000 463.000 L470.000 465.000 L469.000 465.000 L469.000 471.000 L470.000 471.000 L470.000 472.000 L476.000 473.000 L476.000 474.000 L488.000 475.000 L488.000 476.000 L491.000 476.000 L491.000 476.550 C491.000 476.850 491.125 477.083 491.374 477.250 L493.251 478.501 C493.750 478.834 494.000 479.300 494.000 479.900 L494.000 481.000 L495.000 481.000 L495.000 488.000 L494.000 488.000 L494.000 490.000 L493.450 490.000 C493.150 490.000 492.917 490.125 492.750 490.374 L491.499 492.251 C491.166 492.750 490.700 493.000 490.100 493.000 L489.000 493.000 L489.000 494.000 L486.000 494.000 L486.000 495.000 L473.000 495.000 L473.000 494.000 L470.000 494.000 L470.000 493.000 L466.000 492.000 L466.000 490.000 L464.000 489.000 L464.000 486.000 L468.000 486.000 L468.000 488.000 L468.550 488.000 C468.850 488.000 469.083 488.125 469.250 488.374 L470.251 489.877 C470.750 490.626 471.450 491.000 472.350 491.000 L474.000 491.000 L474.000 492.000 L484.000 492.000 L484.000 491.000 L488.000 491.000 L488.000 490.450 C488.000 490.150 488.120 489.910 488.360 489.730 L490.560 488.080 C491.520 487.360 492.000 486.400 492.000 485.200 L492.000 483.000 L491.000 483.000 L491.000 481.000 L490.000 481.000 L489.450 479.900 C489.150 479.300 488.668 478.953 488.004 478.858 L482.000 478.000 L482.000 477.000 L471.000 476.000 L471.000 475.000 L469.000 475.000 L469.000 474.000 L466.000 473.000 L466.000 471.000 L465.000 471.000 L465.000 464.000 L467.000 463.000 L467.000 461.000 L469.000 461.000 L470.000 459.000 L473.000 459.000 Z  M553.000 458.000 L553.000 458.000 L585.000 458.000 L585.000 461.000 L572.000 461.000 L572.000 462.000 L571.000 462.000 L571.000 495.000 L568.000 495.000 L568.000 494.000 L567.000 494.000 L567.000 461.000 L553.000 461.000 Z  M645.000 458.000 L645.000 458.000 L648.000 458.000 L648.000 484.000 L649.000 484.000 L649.000 487.000 L649.550 487.000 C649.850 487.000 650.083 487.125 650.250 487.374 L651.100 488.650 C651.700 489.550 652.530 490.106 653.591 490.318 L657.000 491.000 L657.000 492.000 L665.000 492.000 L665.000 491.000 L668.000 491.000 L668.000 490.450 C668.000 490.150 668.120 489.910 668.360 489.730 L671.280 487.540 C671.760 487.180 672.000 486.700 672.000 486.100 L672.000 485.000 L673.000 485.000 L673.000 459.000 L674.000 459.000 L674.000 458.000 L677.000 459.000 L677.000 483.000 L676.000 483.000 L675.000 489.000 L674.450 489.000 C674.150 489.000 673.910 489.120 673.730 489.360 L672.350 491.200 C671.450 492.400 670.265 493.147 668.794 493.441 L666.000 494.000 L666.000 495.000 L655.000 495.000 L655.000 494.000 L650.000 493.000 L650.000 492.450 C650.000 492.150 649.880 491.910 649.640 491.730 L647.080 489.810 C646.360 489.270 646.000 488.550 646.000 487.650 L646.000 486.000 L645.000 486.000 Z  M741.000 458.000 L741.000 458.000 L760.000 458.000 L760.000 459.000 L766.000 460.000 L766.000 460.550 C766.000 460.850 766.117 461.094 766.351 461.281 L769.208 463.567 C770.403 464.522 771.150 465.750 771.450 467.250 L772.000 470.000 L773.000 470.000 L773.000 482.000 L772.000 482.000 L772.000 486.000 L770.000 487.000 L770.000 489.000 L769.450 489.000 C769.150 489.000 768.917 489.125 768.750 489.374 L767.499 491.251 C767.166 491.750 766.700 492.000 766.100 492.000 L765.000 492.000 L765.000 493.000 L763.000 493.000 L763.000 494.000 L759.000 494.000 L759.000 495.000 L741.000 495.000 L741.000 494.000 L740.000 494.000 L740.000 459.000 L741.000 459.000 Z  M835.000 458.000 L835.000 458.000 L838.000 458.000 L838.000 495.000 L835.000 495.000 Z  M912.000 458.000 L912.000 458.000 L925.000 458.000 L925.000 459.000 L928.000 459.000 L928.000 460.000 L932.000 461.000 L932.000 462.000 L933.100 462.550 C933.700 462.850 934.081 463.325 934.244 463.976 L935.000 467.000 L936.000 467.000 L936.000 470.000 L937.000 470.000 L937.000 483.000 L936.000 483.000 L935.000 488.000 L934.450 488.000 C934.150 488.000 933.906 488.117 933.719 488.351 L930.562 492.297 C930.187 492.766 929.700 493.000 929.100 493.000 L928.000 493.000 L928.000 494.000 L925.000 494.000 L925.000 495.000 L913.000 495.000 L913.000 494.000 L909.000 494.000 L909.000 493.000 L907.000 493.000 L907.000 492.450 C907.000 492.150 906.880 491.910 906.640 491.730 L903.720 489.540 C903.240 489.180 903.000 488.700 903.000 488.100 L903.000 487.000 L902.000 487.000 L902.000 485.000 L901.000 485.000 L901.000 469.000 L902.000 469.000 L902.000 466.000 L903.000 466.000 L903.000 464.000 L903.550 464.000 C903.850 464.000 904.090 463.880 904.270 463.640 L905.650 461.800 C906.550 460.600 907.735 459.853 909.206 459.559 L912.000 459.000 Z  M745.450 461.000 L745.450 461.000 C745.150 461.000 744.850 461.000 744.550 461.000 L744.000 461.000 L744.000 491.000 L761.000 491.000 L761.000 490.000 L764.000 490.000 L764.000 489.450 C764.000 489.150 764.125 488.917 764.374 488.750 L765.650 487.900 C766.550 487.300 767.106 486.470 767.318 485.409 L768.000 482.000 L769.000 482.000 L769.000 469.000 L768.000 469.000 L768.000 467.000 L767.000 467.000 L766.000 464.000 L764.000 464.000 L763.000 462.000 L759.000 462.000 L759.000 461.000 Z  M914.450 461.000 L914.450 461.000 C914.150 461.000 913.850 461.000 913.550 461.000 L913.000 461.000 L913.000 462.000 L910.000 462.000 L910.000 462.550 C910.000 462.850 909.883 463.094 909.649 463.281 L906.054 466.157 C905.351 466.719 905.000 467.450 905.000 468.350 L905.000 470.000 L904.000 470.000 L904.000 482.000 L905.000 482.000 L906.000 487.000 L906.550 487.000 C906.850 487.000 907.083 487.125 907.250 487.374 L908.100 488.650 C908.700 489.550 909.530 490.106 910.591 490.318 L914.000 491.000 L914.000 492.000 L924.000 492.000 L924.000 491.000 L928.000 490.000 L928.000 489.450 C928.000 489.150 928.120 488.910 928.360 488.730 L930.200 487.350 C931.400 486.450 932.093 485.256 932.279 483.767 L933.000 478.000 L934.000 478.000 L933.000 470.000 L932.000 470.000 L931.000 465.000 L930.000 465.000 L929.450 463.900 C929.150 463.300 928.675 462.919 928.024 462.756 L925.000 462.000 L925.000 461.000 Z  M101.000 375.000 L192.000 197.000 L214.000 197.000 L245.000 259.000 L231.000 286.000 L204.000 231.000 L130.000 375.000 Z  M244.000 314.000 L258.000 286.000 L304.000 375.000 L274.000 375.000 Z  M470.000 197.000 L496.000 197.000 L496.000 340.000 C496.000 349.000 499.000 351.000 511.000 351.000 L627.000 351.000 L627.000 375.000 L505.000 375.000 C486.000 375.000 470.000 363.000 470.000 343.000 Z  M752.000 197.000 L929.000 197.000 L929.000 221.000 L855.000 221.000 L855.000 375.000 L829.000 375.000 L829.000 221.000 L752.000 221.000 Z  M1154.000 197.000 L1154.000 222.000 C1121.000 227.000 1108.000 250.000 1108.000 286.000 C1108.000 332.000 1127.000 353.000 1176.000 353.000 C1226.000 353.000 1246.000 332.000 1246.000 286.000 C1246.000 253.000 1231.000 229.000 1202.000 222.000 L1202.000 198.000 C1246.000 207.000 1271.000 237.000 1271.000 287.000 C1271.000 347.000 1239.000 375.000 1176.000 375.000 C1113.000 375.000 1082.000 347.000 1082.000 287.000 C1082.000 237.000 1105.000 207.000 1154.000 197.000 Z"/><path fill="#C8FF00" fill-rule="evenodd" d="M39.500 40.500 L105.000 40.500 L105.000 43.500 L42.500 43.500 L42.500 106.000 L39.500 106.000 Z  M1360.500 40.500 L1295.000 40.500 L1295.000 43.500 L1357.500 43.500 L1357.500 106.000 L1360.500 106.000 Z  M39.500 528.500 L105.000 528.500 L105.000 525.500 L42.500 525.500 L42.500 463.000 L39.500 463.000 Z  M1360.500 528.500 L1295.000 528.500 L1295.000 525.500 L1357.500 525.500 L1357.500 463.000 L1360.500 463.000 Z"/></svg>